<svg width="138" height="162" viewBox="0 0 138 162" fill="none" xmlns="http://www.w3.org/2000/svg">
<path d="M123.392 110.165L129.739 24.4877C130.291 17.0393 125.4 10.2749 118.154 8.46344C109.269 6.24211 100.428 12.2468 99.2179 21.3253L94.1873 59.0564" stroke="#F0E8C2" stroke-width="14.6025" stroke-linecap="round" stroke-linejoin="round"/>
<path d="M43.0785 73.6596L37.8715 42.4173C36.663 35.1665 30.3895 29.8521 23.0387 29.8521C14.1962 29.8521 7.26246 37.4447 8.06297 46.2509L13.8735 110.166" stroke="#F0E8C2" stroke-width="14.6025" stroke-linecap="round" stroke-linejoin="round"/>
<path d="M72.2835 88.2622V77.3103C72.2835 69.2453 65.746 62.7078 57.681 62.7078C49.6163 62.7078 43.0785 69.2453 43.0785 77.3103V102.865" stroke="#F0E8C2" stroke-width="14.6025" stroke-linecap="round" stroke-linejoin="round"/>
<path d="M101.489 88.2622V73.6597C101.489 65.5949 94.951 59.0571 86.8861 59.0571C78.8211 59.0571 72.2835 65.5949 72.2835 73.6597V88.2622" stroke="#F0E8C2" stroke-width="14.6025" stroke-linecap="round" stroke-linejoin="round"/>
<path d="M123.392 110.166C119.481 139.371 98.8755 153.974 68.6329 153.974C38.3901 153.974 13.8734 139.371 13.8734 110.166" stroke="#F0E8C2" stroke-width="14.6025"/>
<path d="M84.6395 117.467H64.9823C56.9175 117.467 50.3798 110.93 50.3798 102.865C50.3798 94.7998 56.9175 88.2622 64.9823 88.2622H94.1873C110.317 88.2622 127.043 102.865 119.742 124.769" stroke="#F0E8C2" stroke-width="14.6025" stroke-linecap="round" stroke-linejoin="round"/>
</svg>
